<?xml version="1.0" encoding="utf-8"?>
<!-- Generator: Adobe Illustrator 19.1.0, SVG Export Plug-In . SVG Version: 6.00 Build 0)  -->
<svg version="1.1" id="Ebene_1" xmlns="http://www.w3.org/2000/svg" xmlns:xlink="http://www.w3.org/1999/xlink" x="0px" y="0px"
	 viewBox="0 0 84.3 84.3" style="enable-background:new 0 0 84.3 84.3;" xml:space="preserve">
<style type="text/css">
	.st0{fill:#FFFFFF;}
	.st1{fill:#3D3D3D;}
	.st2{fill:#121212;}
</style>
<g>
	<path class="st0" d="M52.8,11.6L39.5,40.7l15.9,5.6h2c0,0,6.8-14.5,9-21c3.6-10.4-2.4-8.5-5.8-10.2C57.2,13.4,52.8,11.6,52.8,11.6z
		"/>
	<g>
		<g>
			<g>
				<path class="st1" d="M55.8,15.7c0,0-0.3,0.1-0.4,0.1c1.2,5.9,2.4,9.6,1.5,11.9c-0.9,2.3-2.4,3.7-12.8,11.8c0.4,0,0.9,0,1.8-0.5
					c0.7-0.5,13.9-9,14.3-10.3C60.6,27.2,56.3,16.4,55.8,15.7z"/>
			</g>
			<path class="st1" d="M65.6,72.6c-1.4,0-5.7-1.2-6-2.2c0,0,0.2-0.5,0.4-1.1c0.2-0.7,3.5-10.1,4.2-13.6c0.5-1.8,0.9-3.3-0.2-5.4
				c-0.7-1.4-3.1-3-5.6-4.3c1.4-2.9,11.8-25.3,10.9-28c-0.7-2.3-14.8-8.3-16.6-7.6c-1.9,0.7-15,29.1-14.2,30.5c0.7,1.4,2.4,2,2.4,2
				c-0.1,0.2-0.9,3.1,1.1,5.2c0,0,0,0,0,0c0.2,0.3-1.6,8.4-2.5,10.1c-4.2-0.3-10.4-0.7-11.5-2.1c-1.3-1.3-2.2-1.9-3.9-1.9
				c0,0-1.5-0.1-2,1.9c-0.4,1.6-1.3,9.7,0.4,12c0.3,0.3,1.5,0.5,1.6-0.8c0.1-1.4,1.7-5.8,2.7-6.1c0,0,0.2,0,0.7-0.1
				c3.8-0.5,13.9,3.4,14.5,3.4c0.1,0,0.2,0,0.3,0c1.5-0.2,5.8-7.9,6.8-13c1,0.3,1.8,0.5,2.3,0.6c1.4,0.3,4.6,0.7,6.2,1.3
				c0.4,0.1,0.6,0.3,0.7,0.3c0,0,0,0.2-0.3,0.8c-1.1,2.9,0.4,8.3-3.6,14.8l0,0.1c0,0-2,2.4-1.9,4.1c0,0-0.1,1.4,1.9,1.8
				c1.7,0.3,10.1,0.5,12.3-1.3C66.8,73.7,66.9,72.6,65.6,72.6z M53.5,12.6c1.2-0.1,12.9,5.2,13.4,6.6c0.5,1.2-9.2,25.5-10.6,25.7
				c-1.3,0.3-2.5-0.9-4.7-1.7c-2.9-1-6.1-1.6-7.9-1.9C42,41,41,41,40.7,40.3C40.3,39.5,52.3,12.8,53.5,12.6z"/>
			<path class="st2" d="M41.9,48.1c0.4,1.6,2.9,5.2,6,7.1c0.5-1.3,0.9-2.5,1.1-3.6l0,0l0,0C48.6,51.5,43.6,50,41.9,48.1z"/>
		</g>
	</g>
	<rect x="45.5" y="69" transform="matrix(0.9143 0.4051 -0.4051 0.9143 32.2058 -13.7784)" class="st1" width="6.4" height="0.4"/>
	<rect x="46.5" y="70.3" transform="matrix(0.9143 0.4051 -0.4051 0.9143 32.7721 -13.768)" class="st1" width="4.8" height="0.4"/>
	
		<rect x="47.3" y="71.6" transform="matrix(0.9143 0.4051 -0.4051 0.9143 33.3113 -13.7197)" class="st1" width="3.5" height="0.4"/>
	<rect x="14.7" y="53" transform="matrix(0.9543 0.2988 -0.2988 0.9543 16.7034 -2.9029)" class="st1" width="6.4" height="0.4"/>
	<rect x="15.8" y="54.3" transform="matrix(0.9543 0.2987 -0.2987 0.9543 17.1121 -2.9657)" class="st1" width="4.8" height="0.4"/>
	<rect x="16.8" y="55.5" transform="matrix(0.9543 0.2988 -0.2988 0.9543 17.5067 -2.9979)" class="st1" width="3.5" height="0.4"/>
</g>
</svg>
